<?xml version="1.0" standalone="no"?>
<!DOCTYPE svg PUBLIC "-//W3C//DTD SVG 20010904//EN"
 "http://www.w3.org/TR/2001/REC-SVG-20010904/DTD/svg10.dtd">
<svg version="1.0" xmlns="http://www.w3.org/2000/svg"
 width="700.000000pt" height="700.000000pt" viewBox="0 0 700.000000 700.000000"
 preserveAspectRatio="xMidYMid meet">
<metadata>
Created by potrace 1.11, written by Peter Selinger 2001-2013
</metadata>
<g transform="translate(0.000000,700.000000) scale(0.100000,-0.100000)"
fill="#000000" stroke="none">
<path d="M3357 5720 c-56 -18 -69 -24 -217 -115 -349 -214 -1075 -660 -1215
-745 -208 -127 -256 -161 -287 -203 -45 -59 -77 -125 -88 -184 -8 -41 -10
-355 -8 -1078 l3 -1020 31 -65 c61 -127 62 -128 499 -395 160 -98 414 -254
565 -347 151 -93 282 -173 290 -178 8 -5 76 -46 150 -91 74 -45 151 -92 171
-105 97 -65 250 -85 360 -46 30 10 162 85 294 167 132 81 254 156 272 166 17
10 51 30 75 46 24 15 51 32 60 38 10 5 54 33 99 60 45 28 98 60 118 71 20 12
139 85 265 163 125 77 232 141 237 141 5 0 9 5 9 10 0 6 4 10 9 10 14 0 180
105 226 144 55 46 95 106 122 185 21 64 22 79 22 431 0 346 -1 367 -19 398
-11 18 -34 41 -52 52 -31 19 -54 19 -708 20 -413 0 -689 -4 -710 -10 -23 -6
-50 -27 -75 -57 -106 -125 -170 -173 -270 -199 -302 -81 -589 203 -511 506 74
287 411 411 651 239 23 -16 67 -61 99 -100 34 -42 71 -76 91 -85 29 -12 150
-14 717 -14 664 0 684 1 716 20 18 11 41 34 52 52 19 32 20 51 20 433 0 223
-5 419 -10 442 -17 71 -60 151 -110 201 -38 38 -193 142 -331 222 -36 20 -715
437 -759 465 -67 43 -232 145 -235 145 -2 0 -52 31 -112 68 -59 37 -133 82
-164 100 -108 61 -230 76 -342 42z m323 -1169 c335 -68 602 -246 785 -523 59
-90 47 -166 -31 -203 -29 -13 -60 -16 -174 -13 l-139 3 -88 86 c-142 138 -246
197 -407 230 -568 116 -1055 -430 -871 -977 41 -123 83 -194 167 -282 156
-164 350 -245 573 -238 107 4 132 8 210 33 125 40 227 106 330 213 80 83 99
90 244 90 134 0 176 -12 204 -59 27 -46 27 -82 -1 -131 -144 -253 -422 -458
-725 -534 -96 -24 -118 -27 -252 -31 -327 -11 -629 109 -864 344 -391 390
-456 996 -158 1467 112 177 291 334 488 428 73 34 177 72 225 80 13 3 27 7 31
9 5 3 37 8 73 12 36 4 66 8 68 10 7 7 262 -4 312 -14z"/>
</g>
</svg>
