<?xml version="1.0" encoding="utf-8"?>
<!-- Generator: Adobe Illustrator 22.0.0, SVG Export Plug-In . SVG Version: 6.00 Build 0)  -->
<svg version="1.1" id="Layer_1" xmlns="http://www.w3.org/2000/svg" xmlns:xlink="http://www.w3.org/1999/xlink" x="0px" y="0px"
	 viewBox="0 0 37.9 37.9" style="enable-background:new 0 0 37.9 37.9;" xml:space="preserve">
<style type="text/css">
	.st0{fill:#E1E263;}
	.st1{fill:#D2D2D2;}
</style>
<path class="st0" d="M29.3,26.7c0.1-1.1,0.5-2.2,0.9-3.4l0.1-0.4c0.4-1,0.7-2,0.6-3.1c-0.1-0.9-0.6-1.6-1.1-2.3
	c-0.1-0.1-1.5-2.4-1.5-2.4c-0.2,0.3-0.4,0.5-0.6,0.8c-0.5,0.5-1.1,1-1.9,1.5c-1,0.6-2.1,1.1-3.2,1.4c-0.7,0.2-1.4,0.3-2.1,0.5
	c-0.5,0.1-1,0.1-1.6,0.2c-0.6,0.1-1.3,0.1-2,0.3c-1.7,0.3-3.2,0.9-4.3,1.6c-1.3,0.8-2.2,1.9-2.8,3.2c-0.3,0.8-0.6,2-0.4,2.7
	c0.1,0.2,0.2,0.4,0.4,0.4c0.5,0.2,1.1-0.2,1.5-0.4c0.1,0,0.1-0.1,0.2-0.1c1.6-0.9,3.5-1.5,5.3-1.7c3.1-0.4,5.9-0.1,8.2,0.8l0,0l0,0
	l0,0.2c-0.1,0.3-0.1,0.6-0.3,0.7l0,0l0,0c-1.8-0.7-4.1-0.9-6.4-0.8c-2.2,0.2-4.3,0.7-5.8,1.5c-0.2,0.1-0.4,0.2-0.6,0.3
	c-0.4,0.2-0.8,0.5-1.2,0.6c-0.2,0.1-0.4,0.1-0.6,0.1c-0.5,0-0.9-0.2-1.2-0.5c-0.8-1-0.6-3.2-0.1-4.4l0,0c0,0-2-3-2.2-3.2
	c-0.4-0.6-0.9-1.3-1-2.2c-0.1-0.9,0.5-3,0.8-3.9c0.1-0.2,0.8-2.2,0.9-3.1c0.1-1.7-0.3-2.8-0.9-3.7l0-0.1C6.2,7.3,5.7,6.3,5,6.2l0,0
	l0,0C4.8,6.4,4.7,6.6,4.6,6.8L0.3,17.4c-0.4,0.9-0.4,2.2,0,3.1L4.6,31C5,31.9,6,32.9,6.8,33.2l10.6,4.4c0.4,0.2,1,0.3,1.5,0.3
	c0.6,0,1.1-0.1,1.6-0.3L31,33.2c0.2-0.1,0.5-0.3,0.8-0.5l0,0l-0.1-0.1C30.5,31.5,29,29.5,29.3,26.7"/>
<path class="st1" d="M8.5,11.2c-0.1,1.2-0.5,2.2-0.9,3.4c0,0.1-0.1,0.3-0.1,0.4c-0.4,1-0.7,2-0.6,3.1C7,18.9,7.6,19.7,8,20.3
	c0.1,0.1,1.5,2.4,1.5,2.4c0.2-0.3,0.4-0.5,0.6-0.8c0.5-0.5,1.1-1,1.9-1.5c1-0.6,2.1-1.1,3.2-1.4c0.7-0.2,1.4-0.4,2.1-0.5v0
	c0.5-0.1,1-0.1,1.6-0.2c0.6-0.1,1.3-0.1,2-0.3c1.7-0.3,3.2-0.9,4.3-1.6c1.3-0.8,2.2-1.9,2.8-3.2c0.3-0.8,0.6-2,0.4-2.7
	c-0.1-0.2-0.2-0.4-0.4-0.4c-0.5-0.2-1.1,0.2-1.5,0.4c-0.1,0-0.1,0.1-0.2,0.1c-1.6,0.9-3.5,1.5-5.3,1.7c-3.1,0.4-5.9,0.1-8.2-0.8l0,0
	l0,0c0-0.1,0-0.1,0-0.2c0.1-0.3,0.1-0.6,0.3-0.7l0,0l0,0c1.8,0.7,4.1,0.9,6.4,0.8c2.2-0.2,4.3-0.7,5.8-1.5c0.2-0.1,0.4-0.2,0.6-0.3
	c0.4-0.2,0.8-0.5,1.2-0.6c0.2-0.1,0.4-0.1,0.6-0.1c0.5,0,0.9,0.2,1.2,0.5c0.8,1,0.6,3.2,0.1,4.4l0,0c0,0,2,3,2.2,3.2
	c0.4,0.6,0.9,1.3,1,2.2c0.1,0.9-0.5,3-0.8,3.9c-0.1,0.2-0.8,2.2-0.9,3.1c-0.1,1.7,0.3,2.8,0.9,3.7l0,0.1c0.3,0.5,0.8,1.4,1.5,1.6
	l0,0l0,0c0.2-0.2,0.3-0.5,0.4-0.7l4.4-10.6c0.4-0.9,0.4-2.2,0-3.1L33.2,6.8C32.9,6,31.9,5,31,4.6L20.5,0.3c-0.4-0.2-1-0.3-1.5-0.3
	c-0.6,0-1.1,0.1-1.6,0.3L6.8,4.6C6.6,4.7,6.3,4.9,6,5.1l0,0l0.1,0.1C7.4,6.4,8.8,8.3,8.5,11.2"/>
</svg>
