<svg width="50" height="50" viewBox="0 0 50 50" fill="none" xmlns="http://www.w3.org/2000/svg">
<path fill-rule="evenodd" clip-rule="evenodd" d="M23.2877 9.4428C24.2502 8.8524 25.4626 8.8524 26.4251 9.4428L37.2815 16.1025C38.1708 16.648 38.7128 17.6164 38.7128 18.6597V23.7917C38.7128 24.344 38.2651 24.7917 37.7128 24.7917H28.3929C27.9691 24.7917 27.6045 24.5142 27.3736 24.1589C26.8386 23.3359 25.9111 22.7917 24.8564 22.7917C23.1996 22.7917 21.8564 24.1348 21.8564 25.7917C21.8564 27.4485 23.1996 28.7917 24.8564 28.7917C25.9111 28.7917 26.8386 28.2474 27.3736 27.4245C27.6045 27.0691 27.9691 26.7917 28.3929 26.7917H37.7128C38.2651 26.7917 38.7128 27.2394 38.7128 27.7917V32.3013C38.7128 33.3446 38.1708 34.313 37.2815 34.8585L26.4251 41.5182C25.4626 42.1086 24.2502 42.1086 23.2877 41.5182L12.4313 34.8585C11.542 34.313 11 33.3446 11 32.3013V18.6597C11 17.6164 11.542 16.648 12.4313 16.1025L23.2877 9.4428ZM29.0187 29.2223C29.2306 28.9633 29.538 28.7917 29.8727 28.7917H31.2403C31.9409 28.7917 32.4186 29.4948 32.06 30.0967C30.5909 32.5619 27.8984 34.2134 24.8202 34.2134C20.1691 34.2134 16.3986 30.4429 16.3986 25.7917C16.3986 21.1405 20.1691 17.37 24.8202 17.37C27.8984 17.37 30.5909 19.0215 32.06 21.4867C32.4186 22.0885 31.9409 22.7917 31.2403 22.7917H29.8726C29.538 22.7917 29.2306 22.62 29.0187 22.361C28.0244 21.1457 26.5129 20.37 24.8202 20.37C21.8259 20.37 19.3986 22.7974 19.3986 25.7917C19.3986 28.786 21.8259 31.2134 24.8202 31.2134C26.5129 31.2134 28.0244 30.4377 29.0187 29.2223Z" fill="#633819"/>
</svg>
